HIERARCHY
ROOT Hips
{
	OFFSET 0.000000 0.000000 0.000000
	CHANNELS 6 Xposition Yposition Zposition Xrotation Yrotation Zrotation
	JOINT LeftUpLeg_virtual
	{
		OFFSET 0.000000 0.000000 0.000000
		CHANNELS 3 Xrotation Yrotation Zrotation
		JOINT LeftUpLeg
		{
			OFFSET 11.394100 -6.187798 -0.413800
			CHANNELS 3 Xrotation Yrotation Zrotation
			JOINT LeftLeg
			{
				OFFSET 0.430247 -32.302673 3.732800
				CHANNELS 3 Xrotation Yrotation Zrotation
				JOINT LeftFoot
				{
					OFFSET -0.430247 -48.264931 -6.423300
					CHANNELS 3 Xrotation Yrotation Zrotation
					JOINT LeftToeBase
					{
						OFFSET 4.230900 -16.068199 23.438400
						CHANNELS 3 Xrotation Yrotation Zrotation
						JOINT LeftToe_End
						{
							OFFSET 4.510700 0.695400 19.974600
							CHANNELS 3 Xrotation Yrotation Zrotation
							End Site
							{
								OFFSET 0 0 0
							}
						}
					}
				}
			}
		}
	}
	JOINT RightUpLeg_virtual
	{
		OFFSET 0.000000 0.000000 0.000000
		CHANNELS 3 Xrotation Yrotation Zrotation
		JOINT RightUpLeg
		{
			OFFSET -11.333700 -6.187798 -0.413800
			CHANNELS 3 Xrotation Yrotation Zrotation
			JOINT RightLeg
			{
				OFFSET -0.430392 -32.302628 3.733000
				CHANNELS 3 Xrotation Yrotation Zrotation
				JOINT RightFoot
				{
					OFFSET 0.430392 -48.264973 -6.423500
					CHANNELS 3 Xrotation Yrotation Zrotation
					JOINT RightToeBase
					{
						OFFSET -4.230900 -16.068199 23.438400
						CHANNELS 3 Xrotation Yrotation Zrotation
						JOINT RightToe_End
						{
							OFFSET -4.510700 0.695400 19.974600
							CHANNELS 3 Xrotation Yrotation Zrotation
							End Site
							{
								OFFSET 0 0 0
							}
						}
					}
				}
			}
		}
	}
	JOINT Spine_virtual
	{
		OFFSET 0.000000 0.000000 0.000000
		CHANNELS 3 Xrotation Yrotation Zrotation
		JOINT Spine
		{
			OFFSET -0.002400 12.777504 0.315300
			CHANNELS 3 Xrotation Yrotation Zrotation
			JOINT Spine1
			{
				OFFSET -0.002067 5.816869 0.032633
				CHANNELS 3 Xrotation Yrotation Zrotation
				JOINT Spine1_split
				{
					OFFSET -0.002067 5.816869 0.032633
					CHANNELS 3 Xrotation Yrotation Zrotation
					JOINT Spine2
					{
						OFFSET -0.002067 5.816869 0.032633
						CHANNELS 3 Xrotation Yrotation Zrotation
						JOINT Neck_virtual
						{
							OFFSET 0.000000 0.000000 0.000000
							CHANNELS 3 Xrotation Yrotation Zrotation
							JOINT Neck
							{
								OFFSET -0.003700 21.199493 -0.826900
								CHANNELS 3 Xrotation Yrotation Zrotation
								JOINT Head
								{
									OFFSET 0.000000 20.442200 4.834800
									CHANNELS 3 Xrotation Yrotation Zrotation
									JOINT HeadTop_End
									{
										OFFSET 0.000000 34.668396 4.968400
										CHANNELS 3 Xrotation Yrotation Zrotation
										End Site
										{
											OFFSET 0 0 0
										}
									}
								}
							}
						}
						JOINT LeftShoulder_virtual
						{
							OFFSET 0.000000 0.000000 0.000000
							CHANNELS 3 Xrotation Yrotation Zrotation
							JOINT LeftShoulder
							{
								OFFSET 3.288150 8.794197 -1.372250
								CHANNELS 3 Xrotation Yrotation Zrotation
								JOINT LeftShoulder_split
								{
									OFFSET 3.288150 8.794197 -1.372250
									CHANNELS 3 Xrotation Yrotation Zrotation
									JOINT LeftArm
									{
										OFFSET 11.953299 -2.279007 -0.146200
										CHANNELS 3 Xrotation Yrotation Zrotation
										JOINT LeftForeArm
										{
											OFFSET 18.448900 0.000000 0.000000
											CHANNELS 3 Xrotation Yrotation Zrotation
											JOINT LeftHand
											{
												OFFSET 29.527798 0.000000 0.000000
												CHANNELS 3 Xrotation Yrotation Zrotation
												End Site
												{
													OFFSET 0 0 0
												}
											}
										}
									}
								}
							}
						}
						JOINT RightShoulder_virtual
						{
							OFFSET 0.000000 0.000000 0.000000
							CHANNELS 3 Xrotation Yrotation Zrotation
							JOINT RightShoulder
							{
								OFFSET -3.249400 8.794197 -1.372250
								CHANNELS 3 Xrotation Yrotation Zrotation
								JOINT RightShoulder_split
								{
									OFFSET -3.249400 8.794197 -1.372250
									CHANNELS 3 Xrotation Yrotation Zrotation
									JOINT RightArm
									{
										OFFSET -11.953299 -2.279007 -0.146200
										CHANNELS 3 Xrotation Yrotation Zrotation
										JOINT RightForeArm
										{
											OFFSET -18.448900 0.000000 0.000000
											CHANNELS 3 Xrotation Yrotation Zrotation
											JOINT RightHand
											{
												OFFSET -29.527802 0.000000 0.000000
												CHANNELS 3 Xrotation Yrotation Zrotation
												End Site
												{
													OFFSET 0 0 0
												}
											}
										}
									}
								}
							}
						}
					}
				}
			}
		}
	}
}
MOTION
Frames: 6
Frame Time: 0.03333333
14.745904 39.829453 -11.019135 0.000000 0.000000 0.000000 3.062489 -21.448302 10.392350 -106.496323 -16.522591 36.362264 69.073887 -6.437286 0.830298 48.921493 14.315375 -22.995751 0.460688 -5.901352 1.453692 0.000000 0.000000 0.000000 0.942204 -20.341372 9.913635 -20.451115 -14.449421 -23.682633 113.123424 19.537590 -19.112362 18.352618 -29.485602 43.617359 15.678841 2.942363 -38.475398 0.000000 0.000000 0.000000 0.475879 -11.697143 9.462598 6.086591 0.927599 -7.739030 3.034148 -4.930129 -2.198709 0.166807 0.072820 -0.097054 0.000000 0.000000 0.000000 2.283226 -2.554289 -2.555614 -14.062696 8.201368 7.615649 -24.701203 23.916082 8.992403 0.000000 0.000000 0.000000 0.597190 -3.833547 -3.167385 0.113543 -1.377390 5.109260 -1.278500 1.077521 -0.759877 8.443260 -3.122133 -50.981632 44.394604 -82.033208 35.123216 0.000000 0.000000 0.000000 3.716474 -3.608415 -3.028331 2.379684 11.175676 10.461026 1.120052 4.155613 9.075271 25.787874 25.793098 22.310839 -170.888055 54.215019 -179.904341 0.000000 0.000000 0.000000 
14.724961 39.853188 -11.015793 0.000000 0.000000 0.000000 3.061864 -21.439289 10.400009 -106.460847 -16.519682 36.377448 69.076818 -6.452186 0.831009 48.908068 14.322290 -23.000922 0.474852 -5.898265 1.454517 0.000000 0.000000 0.000000 0.944472 -20.340180 9.921762 -20.473169 -14.456703 -23.704469 113.136121 19.525851 -19.106010 18.309379 -29.501626 43.588358 15.752983 2.917582 -38.484697 0.000000 0.000000 0.000000 0.505686 -11.676923 9.471225 6.090276 0.931855 -7.751910 3.038442 -4.933365 -2.205737 0.170696 0.074584 -0.098236 0.000000 0.000000 0.000000 2.282072 -2.554862 -2.564530 -14.050158 8.209368 7.607689 -24.628588 23.925024 8.980972 0.000000 0.000000 0.000000 0.603022 -3.838978 -3.173674 0.109052 -1.376724 5.142465 -1.298472 1.033462 -0.795188 8.416589 -3.103841 -50.948468 44.580727 -82.102180 35.314489 0.000000 0.000000 0.000000 3.719835 -3.613015 -3.032819 2.378688 11.164445 10.478022 1.109375 4.156677 9.070992 25.839514 25.737037 22.257170 -170.882495 54.257636 -179.891924 0.000000 0.000000 0.000000 
14.702542 39.888424 -11.012440 0.000000 0.000000 0.000000 3.079341 -21.431139 10.427097 -106.373762 -16.512696 36.380548 69.038261 -6.442324 0.822170 48.874262 14.347639 -23.025594 0.496848 -5.890254 1.431300 0.000000 0.000000 0.000000 0.959047 -20.336982 9.950422 -20.559650 -14.447284 -23.753110 113.168899 19.498923 -19.083352 18.274385 -29.522403 43.513762 15.860772 2.889625 -38.480490 0.000000 0.000000 0.000000 0.544362 -11.655288 9.498526 6.107454 0.945371 -7.779019 3.042312 -4.931417 -2.218091 0.171980 0.079680 -0.096842 0.000000 0.000000 0.000000 2.277023 -2.550151 -2.580341 -14.036910 8.210415 7.608735 -24.506855 23.851009 8.973532 0.000000 0.000000 0.000000 0.606591 -3.838118 -3.184829 0.105870 -1.370350 5.178649 -1.291172 0.973211 -0.860295 8.299992 -3.039420 -50.908586 44.882303 -82.244678 35.624033 0.000000 0.000000 0.000000 3.724965 -3.611847 -3.044896 2.374614 11.167755 10.515778 1.104690 4.191922 9.092614 25.835232 25.576907 22.214982 -170.899119 54.277563 -179.858552 0.000000 0.000000 0.000000 
14.679660 39.928291 -11.008041 0.000000 0.000000 0.000000 3.105007 -21.429099 10.465712 -106.253715 -16.506341 36.374265 68.969351 -6.413132 0.805318 48.823463 14.384262 -23.069054 0.517282 -5.878591 1.389870 0.000000 0.000000 0.000000 0.984435 -20.331871 9.993135 -20.688809 -14.430858 -23.812980 113.207619 19.464142 -19.047948 18.271104 -29.536764 43.411419 15.964517 2.870094 -38.471167 0.000000 0.000000 0.000000 0.577814 -11.645366 9.539799 6.135023 0.965141 -7.811481 3.044716 -4.927222 -2.233949 0.169918 0.083977 -0.093540 0.000000 0.000000 0.000000 2.268361 -2.542597 -2.599338 -14.021917 8.207102 7.611284 -24.357040 23.700388 8.962136 0.000000 0.000000 0.000000 0.607864 -3.833345 -3.198412 0.104107 -1.363480 5.207772 -1.262408 0.912689 -0.940658 8.119175 -2.938117 -50.874480 45.247158 -82.420398 35.998246 0.000000 0.000000 0.000000 3.729555 -3.607199 -3.062558 2.370741 11.185065 10.560378 1.090050 4.241809 9.133286 25.791281 25.376543 22.177172 -170.933653 54.278499 -179.809306 0.000000 0.000000 0.000000 
14.658093 39.966625 -11.002987 0.000000 0.000000 0.000000 3.131173 -21.428872 10.509033 -106.120410 -16.505097 36.363910 68.890408 -6.373091 0.784770 48.766591 14.419054 -23.133019 0.534780 -5.864909 1.339083 0.000000 0.000000 0.000000 1.010034 -20.336571 10.038021 -20.845445 -14.421466 -23.874598 113.243047 19.429231 -19.002404 18.320801 -29.521959 43.326229 16.056866 2.858180 -38.470398 0.000000 0.000000 0.000000 0.602329 -11.646708 9.586620 6.170809 0.987038 -7.838204 3.045797 -4.923750 -2.250878 0.169445 0.085783 -0.091090 0.000000 0.000000 0.000000 2.255176 -2.536830 -2.617562 -14.001300 8.205732 7.605527 -24.198932 23.493414 8.938587 0.000000 0.000000 0.000000 0.610202 -3.829724 -3.211393 0.103858 -1.356660 5.219096 -1.226655 0.875594 -1.012932 7.905020 -2.814552 -50.855048 45.624045 -82.582963 36.382365 0.000000 0.000000 0.000000 3.732555 -3.602619 -3.082564 2.368891 11.219394 10.600891 1.068709 4.303208 9.183844 25.727741 25.194686 22.140511 -170.974566 54.270135 -179.755771 0.000000 0.000000 0.000000 
14.639581 39.994884 -10.999603 0.000000 0.000000 0.000000 3.146484 -21.427845 10.546839 -105.993273 -16.510568 36.353433 68.823711 -6.332043 0.765378 48.715658 14.439278 -23.219551 0.543650 -5.850988 1.292160 0.000000 0.000000 0.000000 1.016585 -20.354932 10.074986 -20.994615 -14.430238 -23.923216 113.272178 19.400681 -18.958877 18.396840 -29.478209 43.281488 16.130255 2.855330 -38.491931 0.000000 0.000000 0.000000 0.615862 -11.659017 9.634298 6.210390 1.007074 -7.851733 3.045085 -4.924435 -2.266706 0.171648 0.086008 -0.090760 0.000000 0.000000 0.000000 2.237906 -2.537450 -2.632411 -13.971204 8.212929 7.587418 -24.044243 23.259960 8.903212 0.000000 0.000000 0.000000 0.615650 -3.831253 -3.222761 0.104534 -1.350185 5.205106 -1.199638 0.864065 -1.059239 7.706722 -2.679399 -50.855796 45.985748 -82.698380 36.748764 0.000000 0.000000 0.000000 3.732862 -3.602061 -3.103291 2.370417 11.268166 10.630410 1.045011 4.362462 9.235719 25.676016 25.088135 22.104577 -171.006244 54.262588 -179.710378 0.000000 0.000000 0.000000 
